<svg width="72" height="72" viewBox="0 0 72 72" fill="none" xmlns="http://www.w3.org/2000/svg">
<path d="M43 34H54" stroke="#67677C" stroke-width="2" stroke-linecap="round" stroke-linejoin="round"/>
<path d="M56 5H54.4C50.8654 5 48 8.26563 48 12.2942V59.7058C48 63.7342 50.8654 67 54.4 67H56" stroke="#67677C" stroke-width="2" stroke-linecap="round" stroke-linejoin="round"/>
<path d="M61 33.9999L63.8572 37L71 31" stroke="#67677C" stroke-width="2" stroke-linecap="round" stroke-linejoin="round"/>
<path d="M61 3.99994L63.8572 7L71 1" stroke="#67677C" stroke-width="2" stroke-linecap="round" stroke-linejoin="round"/>
<path d="M62 62L71 71" stroke="#67677C" stroke-width="2" stroke-linecap="round" stroke-linejoin="round"/>
<path d="M71 62L62 71" stroke="#67677C" stroke-width="2" stroke-linecap="round" stroke-linejoin="round"/>
<path fill-rule="evenodd" clip-rule="evenodd" d="M32.7781 35.913H36.3912C37.2798 35.913 38 35.1928 38 34.3044V32.6956C38 31.8072 37.2798 31.087 36.3912 31.087H32.7766C32.4485 29.4563 31.9077 27.876 31.1679 26.3864L33.7241 23.8318C34.3521 23.2035 34.3521 22.1853 33.7241 21.557L31.443 19.2824C30.8147 18.6543 29.7965 18.6543 29.1682 19.2824L26.6104 21.8386C25.1221 21.0985 23.5426 20.5575 21.913 20.2299V16.6088C21.913 15.7202 21.1928 15 20.3044 15H18.6956C17.8072 15 17.087 15.7202 17.087 16.6088V20.2266C15.4568 20.5543 13.8769 21.0952 12.388 21.8354L9.83012 19.2824C9.20186 18.6543 8.18362 18.6543 7.55536 19.2824L5.27912 21.5586C4.65116 22.1869 4.65116 23.2051 5.27912 23.8334L7.83701 26.3896C7.0976 27.8788 6.55681 29.4587 6.22825 31.0886H2.6087C1.72024 31.0886 1 31.8088 1 32.6972V34.306C1 35.1945 1.72024 35.9146 2.6087 35.9146H6.22188C6.5503 37.5445 7.09124 39.1244 7.8305 40.6136L5.27276 43.1715C4.64465 43.7996 4.64465 44.818 5.27276 45.4461L7.55536 47.7209C8.18362 48.3488 9.20186 48.3488 9.83012 47.7209L12.3864 45.163C13.876 45.9028 15.4563 46.4438 17.087 46.7718V50.3912C17.087 51.2798 17.8072 52 18.6956 52H20.3044C21.1928 52 21.913 51.2798 21.913 50.3912V46.7797C23.5425 46.4515 25.1218 45.9107 26.6104 45.1711L29.1699 47.7272C29.7981 48.3554 30.8164 48.3554 31.4446 47.7272L33.7192 45.4526C34.3472 44.8244 34.3472 43.8061 33.7192 43.1779L31.163 40.6201C31.9052 39.1286 32.4484 37.546 32.7781 35.913Z" stroke="#67677C" stroke-width="2" stroke-linecap="round" stroke-linejoin="round"/>
<path fill-rule="evenodd" clip-rule="evenodd" d="M20 40C23.866 40 27 36.866 27 33C27 29.134 23.866 26 20 26C16.134 26 13 29.134 13 33C13 36.866 16.134 40 20 40Z" stroke="#67677C" stroke-width="2" stroke-linecap="round" stroke-linejoin="round"/>
</svg>
