<svg width="72" height="72" viewBox="0 0 72 72" fill="none" xmlns="http://www.w3.org/2000/svg">
<path d="M70.9974 34V55.3698C71.1004 58.3919 68.1644 60.9112 64.4355 61H7.56465C3.8357 60.9112 0.899675 58.3919 1.00263 55.3698V34" stroke="#67677C" stroke-width="2" stroke-linecap="round" stroke-linejoin="round"/>
<path d="M24 70.8857H48.2999" stroke="#67677C" stroke-width="2" stroke-linecap="round" stroke-linejoin="round"/>
<path d="M36 62V68" stroke="#67677C" stroke-width="2" stroke-linecap="round" stroke-linejoin="round"/>
<path d="M31.9999 13.8887H39.9999" stroke="#67677C" stroke-width="2" stroke-linecap="round" stroke-linejoin="round"/>
<path fill-rule="evenodd" clip-rule="evenodd" d="M15.5 15.8888C19.366 15.8888 22.5 12.755 22.5 8.88926C22.5 5.02348 19.366 1.88965 15.5 1.88965C11.634 1.88965 8.5 5.02348 8.5 8.88926C8.5 12.755 11.634 15.8888 15.5 15.8888Z" stroke="#67677C" stroke-width="2" stroke-linecap="round" stroke-linejoin="round"/>
<path fill-rule="evenodd" clip-rule="evenodd" d="M55.5 15.8888C59.366 15.8888 62.5 12.755 62.5 8.88926C62.5 5.02348 59.366 1.88965 55.5 1.88965C51.634 1.88965 48.5 5.02348 48.5 8.88926C48.5 12.755 51.634 15.8888 55.5 15.8888Z" stroke="#67677C" stroke-width="2" stroke-linecap="round" stroke-linejoin="round"/>
<path fill-rule="evenodd" clip-rule="evenodd" d="M15.7 19C7.34286 19 4 24.4996 4 29.9994H27.3999C27.3999 24.4996 24.057 19 15.7 19Z" stroke="#67677C" stroke-width="2" stroke-linecap="round" stroke-linejoin="round"/>
<path fill-rule="evenodd" clip-rule="evenodd" d="M55.7 19C47.3429 19 44 24.4996 44 29.9994H67.3999C67.3999 24.4996 64.057 19 55.7 19Z" stroke="#67677C" stroke-width="2" stroke-linecap="round" stroke-linejoin="round"/>
<path fill-rule="evenodd" clip-rule="evenodd" d="M43.7532 39.3043C43.9112 39.4592 44 39.6694 44 39.8883V54.1739C44 54.6301 43.623 55 43.1579 55H28.8421C28.377 55 28 54.6301 28 54.1739V36.8261C28 36.3699 28.377 36 28.8421 36H40.0362C40.2595 36 40.4737 36.0871 40.6316 36.2421L43.7532 39.3043Z" stroke="#67677C" stroke-width="2" stroke-linecap="round" stroke-linejoin="round"/>
<path d="M31.625 40.875H36.875" stroke="#67677C" stroke-width="2" stroke-linecap="round" stroke-linejoin="round"/>
<path d="M31.625 45.375H40.625" stroke="#67677C" stroke-width="2" stroke-linecap="round" stroke-linejoin="round"/>
<path d="M31.625 49.875H40.625" stroke="#67677C" stroke-width="2" stroke-linecap="round" stroke-linejoin="round"/>
</svg>
