<svg width="72" height="72" viewBox="0 0 72 72" fill="none" xmlns="http://www.w3.org/2000/svg">
<path d="M47.9575 31.227V31.227C48.7808 31.227 49.5415 31.6662 49.9532 32.3792C50.3648 33.0922 50.3648 33.9706 49.9532 34.6836C49.5415 35.3966 48.7808 35.8358 47.9575 35.8358H46.4212C47.6939 35.8358 48.7256 36.8675 48.7256 38.1402C48.7256 39.4138 47.6932 39.6765 46.4212 39.6765H36.4354C32.0554 39.6765 31.0584 38.9084 25.6814 38.1402V25.0818C29.4453 25.0818 35.6672 18.1686 35.6672 12.0234C35.6672 9.59458 39.0301 8.68971 40.2761 13.128C41.0442 15.8641 38.7398 21.2411 38.7398 21.2411H51.03C52.3027 21.2411 53.3345 22.2729 53.3345 23.5456C53.3345 24.8191 52.3021 26.6181 51.03 26.6181H49.4938C50.7665 26.6181 51.7982 27.6498 51.7982 28.9225C51.7982 30.1952 50.7665 31.227 49.4938 31.227H47.9575" stroke="#67677C" stroke-width="2" stroke-linecap="round" stroke-linejoin="round"/>
<path fill-rule="evenodd" clip-rule="evenodd" d="M18 22.7773H25.6814V41.2127H18V22.7773Z" stroke="#67677C" stroke-width="2" stroke-linecap="round" stroke-linejoin="round"/>
<path d="M21 71H52" stroke="#67677C" stroke-width="2" stroke-linecap="round" stroke-linejoin="round"/>
<path d="M36 55L36 70" stroke="#67677C" stroke-width="2" stroke-linecap="round" stroke-linejoin="round"/>
<path d="M64.7722 1H7.22781C3.78829 1 1 3.76894 1 7.1846V48.8154C1 52.2311 3.78829 55 7.22781 55H64.7722C68.2117 55 71 52.2311 71 48.8154V7.1846C71 3.76894 68.2117 1 64.7722 1Z" stroke="#67677C" stroke-width="2"/>
</svg>
